<?xml version="1.0" encoding="UTF-8"?>
<!DOCTYPE svg PUBLIC "-//W3C//DTD SVG 1.1//EN" "http://www.w3.org/Graphics/SVG/1.1/DTD/svg11.dtd">
<!-- Creator: CorelDRAW 2021 (64-Bit) -->
<svg xmlns="http://www.w3.org/2000/svg" xml:space="preserve" width="178px" height="36px" version="1.1" style="shape-rendering:geometricPrecision; text-rendering:geometricPrecision; image-rendering:optimizeQuality; fill-rule:evenodd; clip-rule:evenodd"
viewBox="0 0 8.92 1.79"
 xmlns:xlink="http://www.w3.org/1999/xlink"
 xmlns:xodm="http://www.corel.com/coreldraw/odm/2003">
 <defs>
  <style type="text/css">
   <![CDATA[
    .fil1 {fill:#017D89}
    .fil2 {fill:#333333}
    .fil0 {fill:#F15115}
    .fil5 {fill:#017D89;fill-rule:nonzero}
    .fil3 {fill:#333333;fill-rule:nonzero}
    .fil4 {fill:#F15115;fill-rule:nonzero}
   ]]>
  </style>
 </defs>
 <g id="Layer_x0020_1">
  <metadata id="CorelCorpID_0Corel-Layer"/>
  <g id="_2032626141216">
   <path class="fil0" d="M1.53 1.06c0.4,-0.07 0.73,-0.13 1.1,-0.13 0.07,0 0.31,-0.33 0.27,-0.42 -0.01,-0.13 -0.3,-0.33 -0.44,-0.34 -0.31,-0.03 -0.7,0.03 -0.99,0.15 -0.04,0.24 -0.01,0.5 0.06,0.74zm1.07 -0.6c0.04,0 0.07,0.03 0.07,0.07 0,0.04 -0.03,0.07 -0.07,0.07 -0.04,0 -0.07,-0.03 -0.07,-0.07 0,-0.04 0.03,-0.07 0.07,-0.07z"/>
   <polygon class="fil0" points="1.07,1.29 0,1.45 1.13,1.43 "/>
   <polygon class="fil0" points="0.98,1.02 0.96,0.93 0.36,1.09 "/>
   <path class="fil1" d="M0.14 1.25l0.9 -0.02c-0.01,-0.04 -0.03,-0.08 -0.04,-0.13l-0.86 0.15z"/>
   <path class="fil2" d="M1.34 0.35c-0.05,-0.03 -0.73,0.2 -0.74,0.32 0.03,0.03 0.08,0.13 0.11,0.17 0.06,-0.04 0.26,-0.15 0.35,-0.16 0.01,0.17 0.12,0.67 0.23,0.77 0,0 1.11,-0.23 1.36,-0.19 0.02,-0.02 0.09,-0.15 0.09,-0.18 -0.53,-0.02 -1.05,0.13 -1.31,0.16 -0.08,-0.27 -0.17,-0.62 -0.09,-0.89z"/>
   <path class="fil2" d="M1.68 1.45c0.1,0 0.17,0.07 0.17,0.17 0,0.1 -0.07,0.17 -0.17,0.17 -0.1,0 -0.18,-0.07 -0.18,-0.17 0,-0.1 0.08,-0.17 0.18,-0.17zm0 0.07c0.05,0 0.1,0.05 0.1,0.1 0,0.05 -0.05,0.1 -0.1,0.1 -0.06,0 -0.1,-0.05 -0.1,-0.1 0,-0.05 0.04,-0.1 0.1,-0.1z"/>
   <circle class="fil1" cx="1.68" cy="1.62" r="0.07"/>
   <path class="fil2" d="M2.37 1.37c0.1,0 0.18,0.08 0.18,0.17 0,0.1 -0.08,0.18 -0.18,0.18 -0.09,0 -0.17,-0.08 -0.17,-0.18 0,-0.09 0.08,-0.17 0.17,-0.17zm0 0.08c0.06,0 0.1,0.04 0.1,0.09 0,0.06 -0.04,0.1 -0.1,0.1 -0.05,0 -0.09,-0.04 -0.09,-0.1 0,-0.05 0.04,-0.09 0.09,-0.09z"/>
   <circle class="fil1" cx="2.37" cy="1.54" r="0.07"/>
  </g>
  <path class="fil3" d="M3.55 1.47c0.02,0 0.04,0 0.06,0.01 0.01,0.01 0.02,0.03 0.03,0.05l-0.03 0c0,-0.01 -0.01,-0.02 -0.02,-0.03 -0.01,-0.01 -0.02,-0.01 -0.04,-0.01 -0.01,0 -0.02,0 -0.03,0.01 -0.01,0 -0.02,0.01 -0.03,0.02 0,0.01 -0.01,0.03 -0.01,0.04 0,0.02 0.01,0.03 0.01,0.04 0.01,0.01 0.02,0.02 0.03,0.03 0.01,0 0.02,0.01 0.03,0.01 0.01,0 0.03,-0.01 0.04,-0.01 0.01,-0.01 0.01,-0.01 0.02,-0.02 0.01,-0.01 0.01,-0.02 0.01,-0.04l-0.07 0 0 -0.01 0.09 0 0 0.02c0,0.01 0,0.03 -0.01,0.04 -0.01,0.01 -0.02,0.02 -0.03,0.03 -0.02,0.01 -0.03,0.01 -0.05,0.01 -0.02,0 -0.03,0 -0.05,-0.01 -0.01,-0.01 -0.02,-0.02 -0.03,-0.04 -0.01,-0.01 -0.01,-0.03 -0.01,-0.05 0,-0.02 0,-0.03 0.01,-0.05 0.01,-0.01 0.02,-0.02 0.03,-0.03 0.02,-0.01 0.03,-0.01 0.05,-0.01z"/>
  <path id="_1" class="fil3" d="M3.82 1.58c0,0 0,0.01 0,0.01l-0.12 0c0,0.02 0.01,0.03 0.01,0.04 0.01,0.01 0.03,0.01 0.04,0.01 0.01,0 0.02,0 0.03,-0.01 0.01,-0.01 0.01,-0.01 0.01,-0.02l0.03 0c0,0.01 -0.01,0.02 -0.01,0.02 -0.01,0.01 -0.02,0.02 -0.03,0.02 -0.01,0.01 -0.02,0.01 -0.03,0.01 -0.01,0 -0.03,0 -0.04,-0.01 -0.01,-0.01 -0.02,-0.01 -0.02,-0.03 -0.01,-0.01 -0.01,-0.02 -0.01,-0.04 0,-0.01 0,-0.03 0.01,-0.04 0,-0.01 0.01,-0.02 0.02,-0.02 0.01,-0.01 0.03,-0.01 0.04,-0.01 0.01,0 0.03,0 0.04,0.01 0.01,0 0.02,0.01 0.02,0.02 0.01,0.01 0.01,0.02 0.01,0.04zm-0.02 0c0,-0.01 -0.01,-0.02 -0.01,-0.03 0,-0.01 -0.01,-0.01 -0.02,-0.02 0,0 -0.01,0 -0.02,0 -0.01,0 -0.03,0 -0.03,0.01 -0.01,0.01 -0.02,0.02 -0.02,0.04l0.1 0z"/>
  <path id="_2" class="fil3" d="M3.93 1.64l0 0.02 -0.02 0c-0.01,0 -0.02,-0.01 -0.03,-0.01 -0.01,-0.01 -0.01,-0.02 -0.01,-0.04l0 -0.08 -0.02 0 0 -0.02 0.02 0 0 -0.04 0.02 0 0 0.04 0.04 0 0 0.02 -0.04 0 0 0.08c0,0.01 0.01,0.02 0.01,0.02 0,0 0.01,0.01 0.02,0.01l0.01 0z"/>
  <path id="_3" class="fil3" d="M4.1 1.51c0.01,0 0.03,0 0.04,0.01 0.01,0.01 0.01,0.02 0.02,0.03l0 -0.04 0.02 0 0 0.15 -0.02 0 0 -0.04c-0.01,0.01 -0.01,0.02 -0.02,0.03 -0.01,0.01 -0.03,0.01 -0.04,0.01 -0.01,0 -0.03,0 -0.04,-0.01 -0.01,-0.01 -0.01,-0.01 -0.02,-0.03 -0.01,-0.01 -0.01,-0.02 -0.01,-0.04 0,-0.01 0,-0.03 0.01,-0.04 0.01,-0.01 0.01,-0.02 0.02,-0.02 0.01,-0.01 0.03,-0.01 0.04,-0.01zm0.01 0.02c-0.02,0 -0.03,0 -0.04,0.01 -0.01,0.01 -0.01,0.03 -0.01,0.04 0,0.02 0,0.03 0.01,0.04 0.01,0.01 0.02,0.02 0.04,0.02 0.01,0 0.01,0 0.02,-0.01 0.01,0 0.02,-0.01 0.02,-0.02 0,-0.01 0.01,-0.02 0.01,-0.03 0,-0.01 -0.01,-0.02 -0.01,-0.02 0,-0.01 -0.01,-0.02 -0.02,-0.02 -0.01,-0.01 -0.01,-0.01 -0.02,-0.01z"/>
  <path id="_4" class="fil3" d="M4.36 1.51c0.01,0 0.02,0 0.03,0.01 0.01,0.01 0.02,0.02 0.02,0.03l0 -0.09 0.03 0 0 0.2 -0.03 0 0 -0.04c0,0.01 -0.01,0.02 -0.02,0.03 -0.01,0.01 -0.02,0.01 -0.03,0.01 -0.02,0 -0.03,0 -0.04,-0.01 -0.01,-0.01 -0.02,-0.01 -0.02,-0.03 -0.01,-0.01 -0.01,-0.02 -0.01,-0.04 0,-0.01 0,-0.03 0.01,-0.04 0,-0.01 0.01,-0.02 0.02,-0.02 0.01,-0.01 0.02,-0.01 0.04,-0.01zm0 0.02c-0.01,0 -0.02,0 -0.03,0.01 -0.01,0.01 -0.02,0.03 -0.02,0.04 0,0.02 0.01,0.03 0.02,0.04 0.01,0.01 0.02,0.02 0.03,0.02 0.01,0 0.02,0 0.03,-0.01 0.01,0 0.01,-0.01 0.02,-0.02 0,-0.01 0,-0.02 0,-0.03 0,-0.01 0,-0.02 0,-0.02 -0.01,-0.01 -0.01,-0.02 -0.02,-0.02 -0.01,-0.01 -0.02,-0.01 -0.03,-0.01z"/>
  <path id="_5" class="fil3" d="M4.55 1.51c0.01,0 0.02,0 0.03,0.01 0.01,0.01 0.02,0.02 0.03,0.03l0 -0.04 0.02 0 0 0.15 -0.02 0 0 -0.04c-0.01,0.01 -0.02,0.02 -0.03,0.03 -0.01,0.01 -0.02,0.01 -0.03,0.01 -0.02,0 -0.03,0 -0.04,-0.01 -0.01,-0.01 -0.02,-0.01 -0.02,-0.03 -0.01,-0.01 -0.01,-0.02 -0.01,-0.04 0,-0.01 0,-0.03 0.01,-0.04 0,-0.01 0.01,-0.02 0.02,-0.02 0.01,-0.01 0.02,-0.01 0.04,-0.01zm0.01 0.02c-0.02,0 -0.03,0 -0.04,0.01 -0.01,0.01 -0.01,0.03 -0.01,0.04 0,0.02 0,0.03 0.01,0.04 0.01,0.01 0.02,0.02 0.04,0.02 0,0 0.01,0 0.02,-0.01 0.01,0 0.01,-0.01 0.02,-0.02 0,-0.01 0.01,-0.02 0.01,-0.03 0,-0.01 -0.01,-0.02 -0.01,-0.02 -0.01,-0.01 -0.01,-0.02 -0.02,-0.02 -0.01,-0.01 -0.02,-0.01 -0.02,-0.01z"/>
  <path id="_6" class="fil3" d="M4.67 1.47c0,-0.01 0.01,-0.01 0.01,-0.01 0,-0.01 0.01,-0.01 0.01,-0.01 0.01,0 0.01,0 0.01,0.01 0.01,0 0.01,0 0.01,0.01 0,0 0,0 -0.01,0.01 0,0 0,0 -0.01,0 0,0 -0.01,0 -0.01,0 0,-0.01 -0.01,-0.01 -0.01,-0.01zm0.03 0.04l0 0.15 -0.02 0 0 -0.15 0.02 0z"/>
  <polygon id="_7" class="fil3" points="4.78,1.46 4.78,1.66 4.75,1.66 4.75,1.46 "/>
  <polygon id="_8" class="fil3" points="4.84,1.51 4.88,1.63 4.93,1.51 4.96,1.51 4.87,1.73 4.84,1.73 4.87,1.65 4.81,1.51 "/>
  <path id="_9" class="fil3" d="M5.11 1.51c0.02,0 0.03,0 0.04,0.01 0.01,0.01 0.02,0.02 0.02,0.03l0 -0.09 0.03 0 0 0.2 -0.03 0 0 -0.04c0,0.01 -0.01,0.02 -0.02,0.03 -0.01,0.01 -0.02,0.01 -0.04,0.01 -0.01,0 -0.02,0 -0.03,-0.01 -0.01,-0.01 -0.02,-0.01 -0.03,-0.03 0,-0.01 0,-0.02 0,-0.04 0,-0.01 0,-0.03 0,-0.04 0.01,-0.01 0.02,-0.02 0.03,-0.02 0.01,-0.01 0.02,-0.01 0.03,-0.01zm0.01 0.02c-0.01,0 -0.03,0 -0.04,0.01 0,0.01 -0.01,0.03 -0.01,0.04 0,0.02 0.01,0.03 0.01,0.04 0.01,0.01 0.03,0.02 0.04,0.02 0.01,0 0.02,0 0.03,-0.01 0,0 0.01,-0.01 0.02,-0.02 0,-0.01 0,-0.02 0,-0.03 0,-0.01 0,-0.02 0,-0.02 -0.01,-0.01 -0.02,-0.02 -0.02,-0.02 -0.01,-0.01 -0.02,-0.01 -0.03,-0.01z"/>
  <path id="_10" class="fil3" d="M5.31 1.51c0.02,0 0.03,0 0.04,0.01 0.01,0 0.02,0.01 0.03,0.02 0,0.01 0.01,0.03 0.01,0.04 0,0.02 -0.01,0.03 -0.01,0.04 -0.01,0.02 -0.02,0.02 -0.03,0.03 -0.01,0.01 -0.02,0.01 -0.04,0.01 -0.01,0 -0.02,0 -0.04,-0.01 -0.01,-0.01 -0.02,-0.01 -0.02,-0.03 -0.01,-0.01 -0.01,-0.02 -0.01,-0.04 0,-0.01 0,-0.03 0.01,-0.04 0,-0.01 0.01,-0.02 0.02,-0.02 0.02,-0.01 0.03,-0.01 0.04,-0.01zm0 0.02c-0.01,0 -0.02,0 -0.02,0.01 -0.01,0 -0.02,0.01 -0.02,0.01 -0.01,0.01 -0.01,0.02 -0.01,0.03 0,0.02 0,0.03 0.01,0.03 0,0.01 0.01,0.02 0.02,0.02 0,0.01 0.01,0.01 0.02,0.01 0.01,0 0.02,0 0.03,-0.01 0,0 0.01,-0.01 0.01,-0.02 0.01,0 0.01,-0.01 0.01,-0.03 0,-0.01 0,-0.02 -0.01,-0.03 0,0 -0.01,-0.01 -0.01,-0.01 -0.01,-0.01 -0.02,-0.01 -0.03,-0.01z"/>
  <path id="_11" class="fil3" d="M5.47 1.51c0.02,0 0.03,0 0.04,0.01 0.01,0.01 0.02,0.02 0.02,0.04l-0.02 0c0,-0.01 -0.01,-0.02 -0.01,-0.03 -0.01,0 -0.02,0 -0.03,0 -0.01,0 -0.01,0 -0.02,0 0,0.01 0,0.01 0,0.02 0,0 0,0.01 0,0.01 0,0.01 0.01,0.01 0.01,0.01 0.01,0 0.01,0 0.02,0.01 0.01,0 0.02,0 0.03,0 0.01,0.01 0.01,0.01 0.02,0.02 0,0 0,0.01 0,0.02 0,0.01 0,0.02 -0.01,0.03 -0.01,0.01 -0.02,0.01 -0.04,0.01 -0.01,0 -0.03,-0.01 -0.04,-0.01 -0.01,-0.01 -0.02,-0.02 -0.02,-0.04l0.03 0c0,0.01 0,0.02 0.01,0.02 0,0.01 0.01,0.01 0.02,0.01 0.01,0 0.02,0 0.02,-0.01 0.01,0 0.01,0 0.01,-0.01 0,-0.01 0,-0.01 0,-0.02 -0.01,0 -0.01,0 -0.02,0 0,-0.01 -0.01,-0.01 -0.02,-0.01 -0.01,0 -0.02,0 -0.02,-0.01 -0.01,0 -0.02,0 -0.02,-0.01 0,0 -0.01,-0.01 -0.01,-0.02 0,-0.01 0.01,-0.02 0.02,-0.03 0.01,-0.01 0.02,-0.01 0.03,-0.01z"/>
  <path id="_12" class="fil3" d="M5.71 1.58c0,0 0,0.01 0,0.01l-0.12 0c0,0.02 0.01,0.03 0.02,0.04 0.01,0.01 0.02,0.01 0.03,0.01 0.01,0 0.02,0 0.03,-0.01 0.01,-0.01 0.01,-0.01 0.02,-0.02l0.02 0c0,0.01 0,0.02 -0.01,0.02 -0.01,0.01 -0.01,0.02 -0.02,0.02 -0.01,0.01 -0.03,0.01 -0.04,0.01 -0.01,0 -0.02,0 -0.04,-0.01 -0.01,-0.01 -0.02,-0.01 -0.02,-0.03 -0.01,-0.01 -0.01,-0.02 -0.01,-0.04 0,-0.01 0,-0.03 0.01,-0.04 0,-0.01 0.01,-0.02 0.02,-0.02 0.02,-0.01 0.03,-0.01 0.04,-0.01 0.02,0 0.03,0 0.04,0.01 0.01,0 0.02,0.01 0.02,0.02 0.01,0.01 0.01,0.02 0.01,0.04zm-0.02 0c0,-0.01 0,-0.02 -0.01,-0.03 0,-0.01 -0.01,-0.01 -0.01,-0.02 -0.01,0 -0.02,0 -0.03,0 -0.01,0 -0.02,0 -0.03,0.01 -0.01,0.01 -0.02,0.02 -0.02,0.04l0.1 0z"/>
  <path id="_13" class="fil3" d="M5.89 1.51c0.01,0 0.03,0 0.04,0.01 0.01,0 0.02,0.01 0.02,0.02 0.01,0.01 0.01,0.03 0.01,0.04 0,0.02 0,0.03 -0.01,0.04 0,0.02 -0.01,0.02 -0.02,0.03 -0.01,0.01 -0.03,0.01 -0.04,0.01 -0.02,0 -0.03,0 -0.04,-0.01 -0.01,-0.01 -0.02,-0.01 -0.03,-0.03 0,-0.01 -0.01,-0.02 -0.01,-0.04 0,-0.01 0.01,-0.03 0.01,-0.04 0.01,-0.01 0.02,-0.02 0.03,-0.02 0.01,-0.01 0.02,-0.01 0.04,-0.01zm0 0.02c-0.01,0 -0.02,0 -0.03,0.01 0,0 -0.01,0.01 -0.01,0.01 -0.01,0.01 -0.01,0.02 -0.01,0.03 0,0.02 0,0.03 0.01,0.03 0,0.01 0.01,0.02 0.01,0.02 0.01,0.01 0.02,0.01 0.03,0.01 0.01,0 0.02,0 0.02,-0.01 0.01,0 0.02,-0.01 0.02,-0.02 0.01,0 0.01,-0.01 0.01,-0.03 0,-0.01 0,-0.02 -0.01,-0.03 0,0 -0.01,-0.01 -0.02,-0.01 0,-0.01 -0.01,-0.01 -0.02,-0.01z"/>
  <path id="_14" class="fil3" d="M6.07 1.47c-0.01,0 -0.02,0.01 -0.03,0.01 0,0.01 -0.01,0.01 -0.01,0.03l0 0 0.04 0 0 0.02 -0.04 0 0 0.13 -0.02 0 0 -0.13 -0.02 0 0 -0.02 0.02 0 0 -0.01c0,-0.03 0.02,-0.05 0.06,-0.05l0 0.02z"/>
  <path id="_15" class="fil3" d="M6.31 1.58c0,0 0,0.01 0,0.01l-0.12 0c0,0.02 0,0.03 0.01,0.04 0.01,0.01 0.02,0.01 0.04,0.01 0.01,0 0.02,0 0.03,-0.01 0,-0.01 0.01,-0.01 0.01,-0.02l0.03 0c0,0.01 -0.01,0.02 -0.01,0.02 -0.01,0.01 -0.02,0.02 -0.03,0.02 -0.01,0.01 -0.02,0.01 -0.03,0.01 -0.02,0 -0.03,0 -0.04,-0.01 -0.01,-0.01 -0.02,-0.01 -0.03,-0.03 0,-0.01 -0.01,-0.02 -0.01,-0.04 0,-0.01 0.01,-0.03 0.01,-0.04 0.01,-0.01 0.02,-0.02 0.03,-0.02 0.01,-0.01 0.02,-0.01 0.04,-0.01 0.01,0 0.02,0 0.04,0.01 0.01,0 0.01,0.01 0.02,0.02 0.01,0.01 0.01,0.02 0.01,0.04zm-0.03 0c0,-0.01 0,-0.02 0,-0.03 -0.01,-0.01 -0.01,-0.01 -0.02,-0.02 -0.01,0 -0.01,0 -0.02,0 -0.02,0 -0.03,0 -0.04,0.01 -0.01,0.01 -0.01,0.02 -0.01,0.04l0.09 0z"/>
  <polygon id="_16" class="fil3" points="6.44,1.66 6.4,1.6 6.36,1.66 6.33,1.66 6.38,1.58 6.33,1.51 6.36,1.51 6.4,1.56 6.43,1.51 6.46,1.51 6.41,1.58 6.46,1.66 "/>
  <path id="_17" class="fil3" d="M6.58 1.51c0.01,0 0.02,0 0.03,0.01 0.01,0 0.02,0.01 0.03,0.02 0,0.01 0.01,0.03 0.01,0.04 0,0.02 -0.01,0.03 -0.01,0.04 -0.01,0.02 -0.02,0.02 -0.03,0.03 -0.01,0.01 -0.02,0.01 -0.03,0.01 -0.02,0 -0.03,0 -0.04,-0.01 -0.01,-0.01 -0.02,-0.02 -0.02,-0.03l0 0.11 -0.02 0 0 -0.22 0.02 0 0 0.04c0,-0.01 0.01,-0.02 0.02,-0.03 0.01,-0.01 0.02,-0.01 0.04,-0.01zm-0.01 0.02c-0.01,0 -0.02,0 -0.03,0.01 0,0 -0.01,0.01 -0.01,0.02 -0.01,0 -0.01,0.01 -0.01,0.02 0,0.01 0,0.02 0.01,0.03 0,0.01 0.01,0.02 0.01,0.02 0.01,0.01 0.02,0.01 0.03,0.01 0.02,0 0.03,-0.01 0.04,-0.02 0.01,-0.01 0.01,-0.02 0.01,-0.04 0,-0.01 0,-0.03 -0.01,-0.04 -0.01,-0.01 -0.02,-0.01 -0.04,-0.01z"/>
  <path id="_18" class="fil3" d="M6.71 1.54c0.01,-0.01 0.01,-0.02 0.02,-0.02 0.01,-0.01 0.02,-0.01 0.04,-0.01l0 0.02 -0.01 0c-0.02,0 -0.03,0.01 -0.04,0.01 0,0.01 -0.01,0.02 -0.01,0.04l0 0.08 -0.02 0 0 -0.15 0.02 0 0 0.03z"/>
  <path id="_19" class="fil3" d="M6.94 1.58c0,0 0,0.01 -0.01,0.01l-0.11 0c0,0.02 0,0.03 0.01,0.04 0.01,0.01 0.02,0.01 0.03,0.01 0.02,0 0.03,0 0.03,-0.01 0.01,-0.01 0.02,-0.01 0.02,-0.02l0.02 0c0,0.01 0,0.02 -0.01,0.02 0,0.01 -0.01,0.02 -0.02,0.02 -0.01,0.01 -0.02,0.01 -0.03,0.01 -0.02,0 -0.03,0 -0.04,-0.01 -0.01,-0.01 -0.02,-0.01 -0.03,-0.03 0,-0.01 -0.01,-0.02 -0.01,-0.04 0,-0.01 0.01,-0.03 0.01,-0.04 0.01,-0.01 0.02,-0.02 0.03,-0.02 0.01,-0.01 0.02,-0.01 0.04,-0.01 0.01,0 0.02,0 0.03,0.01 0.01,0 0.02,0.01 0.03,0.02 0,0.01 0.01,0.02 0.01,0.04zm-0.03 0c0,-0.01 0,-0.02 0,-0.03 -0.01,-0.01 -0.01,-0.01 -0.02,-0.02 -0.01,0 -0.02,0 -0.02,0 -0.02,0 -0.03,0 -0.04,0.01 -0.01,0.01 -0.01,0.02 -0.01,0.04l0.09 0z"/>
  <path id="_20" class="fil3" d="M7.02 1.51c0.02,0 0.03,0 0.04,0.01 0.01,0.01 0.02,0.02 0.02,0.04l-0.02 0c0,-0.01 -0.01,-0.02 -0.01,-0.03 -0.01,0 -0.02,0 -0.03,0 -0.01,0 -0.01,0 -0.02,0 0,0.01 0,0.01 0,0.02 0,0 0,0.01 0,0.01 0,0.01 0.01,0.01 0.01,0.01 0.01,0 0.01,0 0.02,0.01 0.01,0 0.02,0 0.03,0 0.01,0.01 0.01,0.01 0.02,0.02 0,0 0,0.01 0,0.02 0,0.01 0,0.02 -0.01,0.03 -0.01,0.01 -0.02,0.01 -0.04,0.01 -0.01,0 -0.03,-0.01 -0.04,-0.01 -0.01,-0.01 -0.02,-0.02 -0.02,-0.04l0.02 0c0.01,0.01 0.01,0.02 0.02,0.02 0,0.01 0.01,0.01 0.02,0.01 0.01,0 0.02,0 0.02,-0.01 0.01,0 0.01,0 0.01,-0.01 0,-0.01 0,-0.01 0,-0.02 -0.01,0 -0.01,0 -0.02,0 0,-0.01 -0.01,-0.01 -0.02,-0.01 -0.01,0 -0.02,0 -0.02,-0.01 -0.01,0 -0.02,0 -0.02,-0.01 -0.01,0 -0.01,-0.01 -0.01,-0.02 0,-0.01 0.01,-0.02 0.02,-0.03 0.01,-0.01 0.02,-0.01 0.03,-0.01z"/>
  <path id="_21" class="fil3" d="M7.17 1.51c0.02,0 0.03,0 0.04,0.01 0.01,0.01 0.02,0.02 0.02,0.04l-0.02 0c0,-0.01 -0.01,-0.02 -0.01,-0.03 -0.01,0 -0.02,0 -0.03,0 -0.01,0 -0.01,0 -0.02,0 0,0.01 -0.01,0.01 -0.01,0.02 0,0 0.01,0.01 0.01,0.01 0,0.01 0.01,0.01 0.01,0.01 0.01,0 0.01,0 0.02,0.01 0.01,0 0.02,0 0.03,0 0.01,0.01 0.01,0.01 0.02,0.02 0,0 0,0.01 0,0.02 0,0.01 0,0.02 -0.01,0.03 -0.01,0.01 -0.02,0.01 -0.04,0.01 -0.01,0 -0.03,-0.01 -0.04,-0.01 -0.01,-0.01 -0.02,-0.02 -0.02,-0.04l0.02 0c0,0.01 0.01,0.02 0.02,0.02 0,0.01 0.01,0.01 0.02,0.01 0.01,0 0.02,0 0.02,-0.01 0.01,0 0.01,0 0.01,-0.01 0,-0.01 0,-0.01 -0.01,-0.02 0,0 0,0 -0.01,0 0,-0.01 -0.01,-0.01 -0.02,-0.01 -0.01,0 -0.02,0 -0.03,-0.01 0,0 -0.01,0 -0.01,-0.01 -0.01,0 -0.01,-0.01 -0.01,-0.02 0,-0.01 0.01,-0.02 0.01,-0.03 0.01,-0.01 0.03,-0.01 0.04,-0.01z"/>
  <path id="_22" class="fil3" d="M7.52 1.51c0.02,0 0.04,0 0.05,0.01 0.01,0.01 0.01,0.03 0.01,0.05l0 0.09 -0.02 0 0 -0.09c0,-0.01 -0.01,-0.02 -0.01,-0.03 -0.01,-0.01 -0.02,-0.01 -0.03,-0.01 -0.02,0 -0.03,0 -0.03,0.01 -0.01,0.01 -0.02,0.02 -0.02,0.04l0 0.08 -0.02 0 0 -0.09c0,-0.01 0,-0.02 -0.01,-0.03 -0.01,-0.01 -0.02,-0.01 -0.03,-0.01 -0.01,0 -0.02,0 -0.03,0.01 -0.01,0.01 -0.01,0.02 -0.01,0.04l0 0.08 -0.03 0 0 -0.15 0.03 0 0 0.03c0,-0.01 0.01,-0.02 0.02,-0.02 0,-0.01 0.02,-0.01 0.03,-0.01 0.01,0 0.02,0 0.03,0.01 0.01,0 0.02,0.01 0.02,0.03 0,-0.02 0.01,-0.03 0.02,-0.03 0.01,-0.01 0.02,-0.01 0.03,-0.01z"/>
  <path id="_23" class="fil3" d="M7.69 1.51c0.01,0 0.03,0 0.04,0.01 0.01,0.01 0.01,0.02 0.02,0.03l0 -0.04 0.02 0 0 0.15 -0.02 0 0 -0.04c-0.01,0.01 -0.01,0.02 -0.02,0.03 -0.01,0.01 -0.03,0.01 -0.04,0.01 -0.01,0 -0.03,0 -0.04,-0.01 -0.01,-0.01 -0.01,-0.01 -0.02,-0.03 -0.01,-0.01 -0.01,-0.02 -0.01,-0.04 0,-0.01 0,-0.03 0.01,-0.04 0.01,-0.01 0.01,-0.02 0.02,-0.02 0.01,-0.01 0.03,-0.01 0.04,-0.01zm0.01 0.02c-0.02,0 -0.03,0 -0.04,0.01 -0.01,0.01 -0.01,0.03 -0.01,0.04 0,0.02 0,0.03 0.01,0.04 0.01,0.01 0.02,0.02 0.04,0.02 0.01,0 0.02,0 0.02,-0.01 0.01,0 0.02,-0.01 0.02,-0.02 0.01,-0.01 0.01,-0.02 0.01,-0.03 0,-0.01 0,-0.02 -0.01,-0.02 0,-0.01 -0.01,-0.02 -0.02,-0.02 0,-0.01 -0.01,-0.01 -0.02,-0.01z"/>
  <path id="_24" class="fil3" d="M7.84 1.54c0.01,-0.01 0.02,-0.02 0.03,-0.02 0.01,-0.01 0.02,-0.01 0.03,-0.01l0 0.02 -0.01 0c-0.01,0 -0.02,0.01 -0.03,0.01 -0.01,0.01 -0.02,0.02 -0.02,0.04l0 0.08 -0.02 0 0 -0.15 0.02 0 0 0.03z"/>
  <polygon id="_25" class="fil3" points="8.01,1.66 7.96,1.59 7.96,1.66 7.93,1.66 7.93,1.46 7.96,1.46 7.96,1.57 8.01,1.51 8.04,1.51 7.98,1.58 8.05,1.66 "/>
  <path id="_26" class="fil3" d="M8.21 1.58c0,0 0,0.01 0,0.01l-0.12 0c0,0.02 0.01,0.03 0.02,0.04 0.01,0.01 0.02,0.01 0.03,0.01 0.01,0 0.02,0 0.03,-0.01 0.01,-0.01 0.01,-0.01 0.02,-0.02l0.02 0c0,0.01 0,0.02 -0.01,0.02 -0.01,0.01 -0.02,0.02 -0.03,0.02 0,0.01 -0.02,0.01 -0.03,0.01 -0.01,0 -0.03,0 -0.04,-0.01 -0.01,-0.01 -0.02,-0.01 -0.02,-0.03 -0.01,-0.01 -0.01,-0.02 -0.01,-0.04 0,-0.01 0,-0.03 0.01,-0.04 0,-0.01 0.01,-0.02 0.02,-0.02 0.01,-0.01 0.03,-0.01 0.04,-0.01 0.02,0 0.03,0 0.04,0.01 0.01,0 0.02,0.01 0.02,0.02 0.01,0.01 0.01,0.02 0.01,0.04zm-0.02 0c0,-0.01 0,-0.02 -0.01,-0.03 0,-0.01 -0.01,-0.01 -0.01,-0.02 -0.01,0 -0.02,0 -0.03,0 -0.01,0 -0.02,0 -0.03,0.01 -0.01,0.01 -0.02,0.02 -0.02,0.04l0.1 0z"/>
  <path id="_27" class="fil3" d="M8.32 1.64l0 0.02 -0.01 0c-0.02,0 -0.03,-0.01 -0.04,-0.01 -0.01,-0.01 -0.01,-0.02 -0.01,-0.04l0 -0.08 -0.02 0 0 -0.02 0.02 0 0 -0.04 0.03 0 0 0.04 0.03 0 0 0.02 -0.03 0 0 0.08c0,0.01 0,0.02 0,0.02 0,0 0.01,0.01 0.02,0.01l0.01 0z"/>
  <polygon id="_28" class="fil3" points="8.38,1.63 8.38,1.66 8.35,1.66 8.35,1.63 "/>
  <polygon id="_29" class="fil3" points="8.44,1.63 8.44,1.66 8.41,1.66 8.41,1.63 "/>
  <polygon id="_30" class="fil3" points="8.49,1.63 8.49,1.66 8.46,1.66 8.46,1.63 "/>
  <g id="_2032626146544">
   <polygon class="fil3" points="3.86,0.3 3.86,0.52 3.6,0.52 3.6,1.28 3.32,1.28 3.32,0.52 3.06,0.52 3.06,0.3 "/>
   <path class="fil3" d="M4.18 0.5c0.06,0 0.1,0.01 0.14,0.03 0.04,0.02 0.07,0.06 0.09,0.1l0 -0.13 0.28 0 0 0.78 -0.28 0 0 -0.12c-0.02,0.04 -0.05,0.07 -0.09,0.1 -0.04,0.02 -0.08,0.03 -0.14,0.03 -0.06,0 -0.12,-0.01 -0.17,-0.05 -0.05,-0.03 -0.09,-0.07 -0.12,-0.13 -0.03,-0.07 -0.04,-0.14 -0.04,-0.22 0,-0.08 0.01,-0.15 0.04,-0.21 0.03,-0.06 0.07,-0.11 0.12,-0.14 0.05,-0.03 0.11,-0.04 0.17,-0.04zm0.09 0.23c-0.04,0 -0.08,0.02 -0.1,0.05 -0.03,0.02 -0.04,0.06 -0.04,0.11 0,0.05 0.01,0.09 0.04,0.12 0.02,0.03 0.06,0.04 0.1,0.04 0.04,0 0.08,-0.01 0.1,-0.04 0.03,-0.03 0.04,-0.07 0.04,-0.12 0,-0.05 -0.01,-0.08 -0.04,-0.11 -0.02,-0.03 -0.06,-0.05 -0.1,-0.05z"/>
   <polygon class="fil4" points="7.39,1.28 7.18,0.96 7.18,1.28 6.9,1.28 6.9,0.26 7.18,0.26 7.18,0.81 7.39,0.5 7.71,0.5 7.41,0.89 7.72,1.28 "/>
   <path class="fil3" d="M6.31 0.5c0.06,0 0.1,0.01 0.14,0.03 0.04,0.02 0.07,0.06 0.09,0.1l0 -0.13 0.28 0 0 0.78 -0.28 0 0 -0.12c-0.02,0.04 -0.05,0.07 -0.09,0.1 -0.04,0.02 -0.08,0.03 -0.14,0.03 -0.06,0 -0.12,-0.01 -0.17,-0.05 -0.05,-0.03 -0.09,-0.07 -0.12,-0.13 -0.02,-0.07 -0.04,-0.14 -0.04,-0.22 0,-0.08 0.02,-0.15 0.04,-0.21 0.03,-0.06 0.07,-0.11 0.12,-0.14 0.05,-0.03 0.11,-0.04 0.17,-0.04zm0.09 0.23c-0.04,0 -0.08,0.02 -0.1,0.05 -0.03,0.02 -0.04,0.06 -0.04,0.11 0,0.05 0.01,0.09 0.04,0.12 0.02,0.03 0.06,0.04 0.1,0.04 0.04,0 0.08,-0.01 0.1,-0.04 0.03,-0.03 0.04,-0.07 0.04,-0.12 0,-0.05 -0.01,-0.08 -0.04,-0.11 -0.02,-0.03 -0.06,-0.05 -0.1,-0.05z"/>
   <polygon class="fil5" points="5.26,1.28 5.05,0.96 5.05,1.28 4.77,1.28 4.77,0.26 5.05,0.26 5.05,0.81 5.26,0.5 5.58,0.5 5.28,0.89 5.59,1.28 "/>
   <path class="fil3" d="M8.42 0.5c0.05,0 0.1,0.01 0.14,0.03 0.04,0.02 0.07,0.06 0.09,0.1l0 -0.13 0.27 0 0 0.78 -0.27 0 0 -0.12c-0.02,0.04 -0.05,0.07 -0.09,0.1 -0.04,0.02 -0.09,0.03 -0.14,0.03 -0.06,0 -0.12,-0.01 -0.17,-0.05 -0.05,-0.03 -0.09,-0.07 -0.12,-0.13 -0.03,-0.07 -0.04,-0.14 -0.04,-0.22 0,-0.08 0.01,-0.15 0.04,-0.21 0.03,-0.06 0.07,-0.11 0.12,-0.14 0.05,-0.03 0.11,-0.04 0.17,-0.04zm0.09 0.23c-0.04,0 -0.08,0.02 -0.1,0.05 -0.03,0.02 -0.04,0.06 -0.04,0.11 0,0.05 0.01,0.09 0.04,0.12 0.02,0.03 0.06,0.04 0.1,0.04 0.04,0 0.07,-0.01 0.1,-0.04 0.03,-0.03 0.04,-0.07 0.04,-0.12 0,-0.05 -0.01,-0.08 -0.04,-0.11 -0.03,-0.03 -0.06,-0.05 -0.1,-0.05z"/>
   <path class="fil4" d="M5.91 1.28l0 -0.1 -0.14 -0.09 -0.14 0.09 0 0.1 0.14 -0.09 0.14 0.09zm0 -0.05m-0.07 -0.09m-0.14 0m-0.07 0.09m0.07 0.01m0.14 0"/>
   <path class="fil4" d="M5.91 1.1l0 -0.1 -0.14 -0.09 -0.14 0.09 0 0.1 0.14 -0.09 0.14 0.09zm0 -0.05m-0.07 -0.09m-0.14 0m-0.07 0.09m0.07 0.01m0.14 0"/>
   <path class="fil4" d="M5.91 0.91l0 -0.09 -0.14 -0.09 -0.14 0.09 0 0.09 0.14 -0.09 0.14 0.09zm0 -0.05m-0.07 -0.09m-0.14 0m-0.07 0.09m0.07 0.01m0.14 0"/>
   <path class="fil4" d="M5.91 0.73l0 -0.1 -0.14 -0.09 -0.14 0.09 0 0.1 0.14 -0.09 0.14 0.09zm0 -0.05m-0.07 -0.09m-0.14 0m-0.07 0.09m0.07 0.01m0.14 0"/>
   <path class="fil4" d="M5.91 0.55l0 -0.1 -0.14 -0.09 -0.14 0.09 0 0.1 0.14 -0.09 0.14 0.09zm0 -0.05m-0.07 -0.1m-0.14 0m-0.07 0.1m0.07 0m0.14 0"/>
   <path class="fil1" d="M5.77 0c0.08,0 0.15,0.07 0.15,0.15 0,0.08 -0.07,0.15 -0.15,0.15 -0.08,0 -0.15,-0.07 -0.15,-0.15 0,-0.08 0.07,-0.15 0.15,-0.15zm0 0.09c0.03,0 0.06,0.03 0.06,0.06 0,0.03 -0.03,0.06 -0.06,0.06 -0.03,0 -0.06,-0.03 -0.06,-0.06 0,-0.03 0.03,-0.06 0.06,-0.06z"/>
   <path class="fil5" d="M8.03 1.28l0 -0.1 -0.13 -0.09 -0.14 0.09 0 0.1 0.14 -0.09 0.13 0.09zm0 -0.05m-0.06 -0.09m-0.14 0m-0.07 0.09m0.07 0.01m0.14 0"/>
   <path class="fil5" d="M8.03 1.1l0 -0.1 -0.13 -0.09 -0.14 0.09 0 0.1 0.14 -0.09 0.13 0.09zm0 -0.05m-0.06 -0.09m-0.14 0m-0.07 0.09m0.07 0.01m0.14 0"/>
   <path class="fil5" d="M8.03 0.91l0 -0.09 -0.13 -0.09 -0.14 0.09 0 0.09 0.14 -0.09 0.13 0.09zm0 -0.05m-0.06 -0.09m-0.14 0m-0.07 0.09m0.07 0.01m0.14 0"/>
   <path class="fil5" d="M8.03 0.73l0 -0.1 -0.13 -0.09 -0.14 0.09 0 0.1 0.14 -0.09 0.13 0.09zm0 -0.05m-0.06 -0.09m-0.14 0m-0.07 0.09m0.07 0.01m0.14 0"/>
   <path class="fil5" d="M8.03 0.55l0 -0.1 -0.13 -0.09 -0.14 0.09 0 0.1 0.14 -0.09 0.13 0.09zm0 -0.05m-0.06 -0.1m-0.14 0m-0.07 0.1m0.07 0m0.14 0"/>
   <path class="fil0" d="M7.9 0c0.08,0 0.15,0.07 0.15,0.15 0,0.08 -0.07,0.15 -0.15,0.15 -0.09,0 -0.15,-0.07 -0.15,-0.15 0,-0.08 0.06,-0.15 0.15,-0.15zm0 0.09c0.03,0 0.06,0.03 0.06,0.06 0,0.03 -0.03,0.06 -0.06,0.06 -0.03,0 -0.06,-0.03 -0.06,-0.06 0,-0.03 0.03,-0.06 0.06,-0.06z"/>
  </g>
 </g>
</svg>
